<svg width="24" height="24" viewBox="0 0 24 24" fill="none" xmlns="http://www.w3.org/2000/svg">
<g clip-path="url(#clip0_374_4254)">
<path d="M22 0H2C0.8972 0 0 0.8972 0 2V20.4C0 21.3656 0.6884 22.1736 1.6 22.3596V22.8C1.6 23.4616 2.1384 24 2.8 24H5.2C5.8616 24 6.4 23.4616 6.4 22.8V22.4H17.6V22.8C17.6 23.4616 18.1384 24 18.8 24H21.2C21.8616 24 22.4 23.4616 22.4 22.8V22.3596C23.3116 22.1736 24 21.366 24 20.4V2C24 0.8972 23.1028 0 22 0ZM5.6 22.8C5.6 23.0208 5.4208 23.2 5.2 23.2H2.8C2.5792 23.2 2.4 23.0208 2.4 22.8V22.4H5.6V22.8ZM21.2 23.2H18.8C18.5792 23.2 18.4 23.0208 18.4 22.8V22.4H21.6V22.8C21.6 23.0208 21.4208 23.2 21.2 23.2ZM23.2 20.4C23.2 21.0616 22.6616 21.6 22 21.6H2C1.3384 21.6 0.8 21.0616 0.8 20.4V2C0.8 1.3384 1.3384 0.8 2 0.8H22C22.6616 0.8 23.2 1.3384 23.2 2V20.4Z" fill="black"/>
<path d="M19.9999 2.80005H3.99993C3.33833 2.80005 2.79993 3.33845 2.79993 4.00005V18.8001C2.79993 19.2413 3.15873 19.6001 3.59993 19.6001H20.3999C20.8411 19.6001 21.1999 19.2413 21.1999 18.8001V4.00005C21.1999 3.33845 20.6615 2.80005 19.9999 2.80005ZM3.99993 3.60005H19.9999C20.2207 3.60005 20.3999 3.77925 20.3999 4.00005V5.20005H14.6887C14.5499 4.96205 14.2947 4.80005 13.9999 4.80005H9.99993C9.70513 4.80005 9.44993 4.96205 9.31113 5.20005H3.59993V4.00005C3.59993 3.77925 3.77913 3.60005 3.99993 3.60005ZM14.7999 6.00005H20.3999V6.80005H14.7999V6.00005ZM10.3999 8.80005C10.1791 8.80005 9.99993 8.62085 9.99993 8.40005V5.60005H13.9999V8.40005C13.9999 8.62085 13.8207 8.80005 13.5999 8.80005H10.3999ZM12.5567 9.60005L11.9999 10.7276L11.4431 9.60005H12.5567ZM9.19993 6.80005H3.59993V6.00005H9.19993V6.80005ZM13.5999 16.8001H10.3999V14.6012C10.3999 14.5652 10.4191 14.5313 10.4499 14.5129L11.9471 13.6144C11.9791 13.5956 12.0207 13.5956 12.0527 13.6144L13.5499 14.5129C13.5807 14.5313 13.5999 14.5652 13.5999 14.6012V16.8001ZM15.9999 17.6001C16.2207 17.6001 16.3999 17.7793 16.3999 18.0001V18.8001H7.59993V18.0001C7.59993 17.7793 7.77913 17.6001 7.99993 17.6001H15.9999ZM17.1999 18.8001V18.0001C17.1999 17.3385 16.6615 16.8001 15.9999 16.8001H14.3999V14.6012C14.3999 14.286 14.2319 13.9897 13.9615 13.8269L12.4643 12.9284C12.1775 12.7564 11.8223 12.7564 11.5355 12.9284L10.0383 13.8269C9.76793 13.9893 9.59993 14.2856 9.59993 14.6012V16.8001H7.99993C7.33833 16.8001 6.79993 17.3385 6.79993 18.0001V18.8001H3.59993V7.60005H9.19993V8.40005C9.19993 9.06165 9.73833 9.60005 10.3999 9.60005H10.5515L11.3331 11.184C11.4595 11.4408 11.7151 11.6 11.9999 11.6C12.2847 11.6 12.5403 11.4408 12.6667 11.184L13.4483 9.60005H13.5999C14.2615 9.60005 14.7999 9.06165 14.7999 8.40005V7.60005H20.3999V18.8001H17.1999Z" fill="black"/>
</g>
<defs>
<clipPath id="clip0_374_4254">
<rect width="24" height="24" fill="white"/>
</clipPath>
</defs>
</svg>
