<svg width="24" height="24" viewBox="0 0 24 24" fill="none" xmlns="http://www.w3.org/2000/svg">
<g clip-path="url(#clip0_374_4263)">
<g clip-path="url(#clip1_374_4263)">
<path d="M13.4998 24H10.4998C9.79976 24 8.99976 23.4 8.99976 22.2V20.1C8.99976 19.1 8.49976 18.2 7.69976 17.5C5.89976 16.1 4.99976 14.1 4.99976 11.9C5.09976 8.1 8.19976 5.1 11.8998 5C13.7998 5 15.5998 5.7 16.8998 7C18.1998 8.3 18.9998 10.1 18.9998 12C18.9998 14.1 18.0998 16.1 16.3998 17.4C15.4998 18.1 14.9998 19.2 14.9998 20.2V22.5C14.9998 23.3 14.2998 24 13.4998 24ZM11.9998 6C8.79976 6 6.09976 8.7 5.99976 11.9C5.99976 13.8 6.79976 15.6 8.29976 16.7C9.39976 17.6 9.99976 18.8 9.99976 20.1V22.2C9.99976 22.4 9.99976 23 10.4998 23H13.4998C13.7998 23 13.9998 22.8 13.9998 22.5V20.2C13.9998 18.9 14.6998 17.5 15.7998 16.6C17.1998 15.5 17.9998 13.8 17.9998 12C17.9998 10.4 17.3998 8.9 16.1998 7.7C15.0998 6.6 13.5998 6 11.9998 6Z" fill="black"/>
<path d="M14.4998 21H9.49976C9.19976 21 8.99976 20.8 8.99976 20.5C8.99976 20.2 9.19976 20 9.49976 20H14.4998C14.7998 20 14.9998 20.2 14.9998 20.5C14.9998 20.8 14.7998 21 14.4998 21Z" fill="black"/>
<path d="M11.9998 3C11.6998 3 11.4998 2.8 11.4998 2.5V0.5C11.4998 0.2 11.6998 0 11.9998 0C12.2998 0 12.4998 0.2 12.4998 0.5V2.5C12.4998 2.8 12.2998 3 11.9998 3Z" fill="black"/>
<path d="M18.6998 5.79995C18.5998 5.79995 18.3998 5.79995 18.2998 5.69995C18.0998 5.49995 18.0998 5.19995 18.2998 4.99995L19.6998 3.59995C19.8998 3.39995 20.1998 3.39995 20.3998 3.59995C20.5998 3.79995 20.5998 4.09995 20.3998 4.29995L18.9998 5.69995C18.9998 5.69995 18.7998 5.79995 18.6998 5.79995Z" fill="black"/>
<path d="M23.4998 12.5H21.4998C21.1998 12.5 20.9998 12.3 20.9998 12C20.9998 11.7 21.1998 11.5 21.4998 11.5H23.4998C23.7998 11.5 23.9998 11.7 23.9998 12C23.9998 12.3 23.7998 12.5 23.4998 12.5Z" fill="black"/>
<path d="M20.0998 20.6C19.9998 20.6 19.7998 20.6 19.6998 20.5L18.2998 19.1C18.0998 18.9 18.0998 18.6 18.2998 18.4C18.4998 18.2 18.7998 18.2 18.9998 18.4L20.3998 19.8C20.5998 20 20.5998 20.3 20.3998 20.5C20.3998 20.6 20.2998 20.6 20.0998 20.6Z" fill="black"/>
<path d="M3.89973 20.6C3.79973 20.6 3.59973 20.6 3.49973 20.5C3.29973 20.3 3.29973 20 3.49973 19.8L4.89973 18.4C5.09973 18.2 5.39973 18.2 5.59973 18.4C5.79973 18.6 5.79973 18.9 5.59973 19.1L4.19973 20.5C4.09973 20.6 3.99973 20.6 3.89973 20.6Z" fill="black"/>
<path d="M2.49976 12.5H0.499756C0.199756 12.5 -0.000244141 12.3 -0.000244141 12C-0.000244141 11.7 0.199756 11.5 0.499756 11.5H2.49976C2.79976 11.5 2.99976 11.7 2.99976 12C2.99976 12.3 2.79976 12.5 2.49976 12.5Z" fill="black"/>
<path d="M5.29973 5.79998C5.19973 5.79998 4.99973 5.79998 4.89973 5.69998L3.49973 4.19998C3.29973 3.99998 3.29973 3.69998 3.49973 3.49998C3.69973 3.29998 3.99973 3.29998 4.19973 3.49998L5.59973 4.89998C5.79973 5.09998 5.79973 5.39998 5.59973 5.59998C5.49973 5.69998 5.39973 5.79998 5.29973 5.79998Z" fill="black"/>
<path d="M15.9998 12.5C15.6998 12.5 15.4998 12.3 15.4998 12C15.4998 10.1 13.8998 8.5 11.9998 8.5C11.6998 8.5 11.4998 8.3 11.4998 8C11.4998 7.7 11.6998 7.5 11.9998 7.5C14.4998 7.5 16.4998 9.5 16.4998 12C16.4998 12.3 16.2998 12.5 15.9998 12.5Z" fill="black"/>
</g>
</g>
<defs>
<clipPath id="clip0_374_4263">
<rect width="24" height="24" fill="white"/>
</clipPath>
<clipPath id="clip1_374_4263">
<rect width="24" height="24" fill="white" transform="translate(-0.000244141)"/>
</clipPath>
</defs>
</svg>
