<svg width="12" height="11" viewBox="0 0 12 11" fill="none" xmlns="http://www.w3.org/2000/svg">
<path d="M11.8411 5.09919L11.9345 5.191V4.912C11.9345 4.29691 11.522 3.79633 11.0152 3.79633H10.2051C9.63834 1.32784 7.70688 0 4.83407 0C3.00442 0 2.76977 0 1.03727 0C1.03727 0 1.55745 0.45678 1.55745 1.89557V3.79763H0.599331C0.413107 3.79763 0.238367 3.72269 0.0937328 3.58027L0 3.48846V3.76778C0 4.38288 0.412486 4.88345 0.919326 4.88345H1.55745V5.9683H0.599331C0.413418 5.9683 0.238367 5.89336 0.0937328 5.75095L0 5.65913V5.93813C0 6.5529 0.412486 7.05316 0.919326 7.05316H1.55745V9.03859C1.55745 10.4368 1.03727 10.8495 1.03727 10.8495H4.83407C7.79751 10.8495 9.66689 9.51256 10.2119 7.05153H11.3355C11.5217 7.05153 11.6964 7.12647 11.8414 7.26889L11.9348 7.3607V7.0817C11.9348 6.46661 11.5223 5.96668 11.0155 5.96668H10.3615C10.3727 5.7902 10.3786 5.6095 10.3786 5.42426C10.3786 5.23901 10.3724 5.05831 10.3609 4.88216H11.3358C11.5217 4.88216 11.6967 4.9571 11.8417 5.09952M3.11305 0.543074H4.7003C6.83598 0.543074 8.0725 1.5319 8.44185 3.79666L3.11336 3.7973V0.543074H3.11305ZM4.71395 10.3077H3.11305V7.05283L8.43844 7.05218C8.09361 9.10185 6.98216 10.2496 4.71395 10.3077ZM8.5601 5.42491C8.5601 5.61047 8.55638 5.79117 8.54831 5.96733L3.11305 5.96798V4.88313L8.54831 4.88248C8.55576 5.05767 8.55979 5.23837 8.55979 5.42491" fill="#141114"/>
</svg>
