<?xml version="1.0" encoding="UTF-8"?><svg id="Layer_2" xmlns="http://www.w3.org/2000/svg" viewBox="0 0 384.53 334.44"><g id="Layer_1-2"><path fill="#FFFFFF" d="M381.52,157.18l3.01,2.83v-8.6c0-18.96-13.29-34.39-29.62-34.39h-26.1C310.55,40.93,248.32,0,155.76,0c-58.95,0-66.51,0-122.33,0,0,0,16.76,14.08,16.76,58.43v58.63h-30.87c-6,0-11.63-2.31-16.29-6.7l-3.02-2.83v8.61c0,18.96,13.29,34.39,29.62,34.39h20.56s0,33.44,0,33.44h-30.87c-5.99,0-11.63-2.31-16.29-6.7l-3.02-2.83v8.6c0,18.95,13.29,34.37,29.62,34.37h20.56s0,61.2,0,61.2c0,43.1-16.76,55.82-16.76,55.82h122.33c95.48,0,155.71-41.21,173.27-117.07h36.2c6,0,11.63,2.31,16.3,6.7l3.01,2.83v-8.6c0-18.96-13.29-34.37-29.62-34.37h-21.07c.36-5.44.55-11.01.55-16.72s-.2-11.28-.57-16.71h31.41c5.99,0,11.63,2.31,16.3,6.7M100.31,16.74h51.14c68.81,0,108.65,30.48,120.55,100.29l-171.68.02V16.74ZM151.89,317.73h-51.58v-100.33l171.58-.02c-11.11,63.18-46.92,98.56-120,100.35M275.81,167.22c0,5.72-.12,11.29-.38,16.72l-175.12.02v-33.44l175.12-.02c.24,5.4.37,10.97.37,16.72"/></g></svg>
