<svg width="24" height="24" viewBox="0 0 24 24" fill="none" xmlns="http://www.w3.org/2000/svg">
<g clip-path="url(#clip0_374_4235)">
<path d="M6.04635 0H17.2963H17.6676L17.7748 0.357431L21.1499 11.6074L21.3426 12.25H20.6714H2.67135H2.00006L2.19284 11.6074L5.56785 0.357431L5.6751 0H6.04635ZM16.9251 1.00003H6.41765L3.34263 11.25H20.0001L16.9251 1.00003H16.9251Z" fill="#212121"/>
<path d="M15.4365 11.3828C16.1349 12.0218 16.7034 12.8316 17.091 13.754C17.4633 14.6399 17.672 15.632 17.672 16.6787C17.672 18.5427 17.0085 20.235 15.936 21.4643C14.8481 22.7112 13.3407 23.4825 11.6719 23.4825C10.0032 23.4825 8.4958 22.7112 7.40786 21.4643C6.33534 20.235 5.67194 18.5427 5.67194 16.6787C5.67194 15.632 5.8806 14.6399 6.25289 13.754C6.64053 12.8316 7.20903 12.0218 7.90736 11.3828L8.24329 11.25H15.1006L15.4365 11.3828ZM16.1691 14.1407C15.8621 13.4101 15.4294 12.7671 14.9045 12.25H8.43937C7.91452 12.7671 7.48179 13.4101 7.17476 14.1407C6.85254 14.9074 6.67194 15.7683 6.67194 16.6787C6.67194 18.2962 7.2398 19.7558 8.15785 20.808C9.06047 21.8426 10.3032 22.4825 11.6719 22.4825C13.0407 22.4825 14.2834 21.8426 15.186 20.808C16.1041 19.7558 16.6719 18.2962 16.6719 16.6787C16.6719 15.7683 16.4913 14.9074 16.1691 14.1407Z" fill="#212121"/>
<path d="M5.67195 23C5.39581 23 5.17194 23.2239 5.17194 23.5C5.17194 23.7762 5.39581 24 5.67195 24H17.672C17.9481 24 18.172 23.7762 18.172 23.5C18.172 23.2239 17.9481 23 17.672 23H5.67195Z" fill="#212121"/>
<path d="M16.6356 3.37117C16.5644 3.10474 16.2907 2.94647 16.0243 3.01765C15.7578 3.08883 15.5996 3.36255 15.6708 3.62899L17.1892 9.29571C17.2603 9.56214 17.5341 9.7204 17.8005 9.64922C18.0669 9.57804 18.2252 9.30432 18.154 9.03789L16.6356 3.37117Z" fill="#212121"/>
</g>
<defs>
<clipPath id="clip0_374_4235">
<rect width="24" height="24" fill="white"/>
</clipPath>
</defs>
</svg>
