<svg width="20" height="20" viewBox="0 0 20 20" fill="none" xmlns="http://www.w3.org/2000/svg">
<path d="M1.66599 17.5C1.66599 14.9999 3.20774 13.0332 5.89956 12.4998C7.91634 12.0998 9.99979 10.8331 10.8332 9.9997M9.16618 16.6666C7.70282 16.6711 6.29123 16.1254 5.21139 15.1378C4.13155 14.1502 3.46234 12.7928 3.33647 11.3348C3.2106 9.87692 3.63728 8.42493 4.53188 7.26687C5.42648 6.1088 6.72366 5.32925 8.16613 5.08283C12.9164 4.16612 14.1665 3.73277 15.8332 1.66602C16.6666 3.33275 17.5 5.1495 17.5 8.33296C17.5 12.9165 13.5164 16.6666 9.16618 16.6666Z" stroke="#67AA38" stroke-width="1.5" stroke-linecap="round"/>
</svg>
