<svg width="44" height="41" viewBox="0 0 44 41" fill="none" xmlns="http://www.w3.org/2000/svg">
<path d="M42.049 31.5142C43.0927 29.2906 43.6018 26.8537 43.5357 24.3982C43.4696 21.9428 42.8301 19.5368 41.6683 17.3726C40.5065 15.2084 38.8545 13.3459 36.8445 11.934C34.8345 10.5221 32.5221 9.59988 30.0921 9.24106C29.2325 7.34685 28.0061 5.64169 26.4838 4.22403C24.9615 2.80638 23.1735 1.70432 21.223 0.981482C19.2724 0.258647 17.198 -0.0706433 15.1195 0.0126241C13.041 0.0958916 10.9996 0.590067 9.11317 1.46662C7.22671 2.34317 5.53258 3.58473 4.12858 5.11961C2.72459 6.6545 1.63855 8.4523 0.933169 10.4092C0.227792 12.3661 -0.0829502 14.4434 0.0188859 16.5211C0.120722 18.5987 0.633119 20.6356 1.52649 22.5142L0.16899 27.2692C0.00294187 27.8488 -0.00480497 28.4623 0.146555 29.0459C0.297916 29.6296 0.602856 30.162 1.02967 30.5878C1.45648 31.0137 1.98959 31.3174 2.57355 31.4675C3.15751 31.6175 3.771 31.6084 4.35024 31.4411L9.10524 30.0836C10.4939 30.7311 11.9693 31.1732 13.4852 31.3961C14.3538 33.2845 15.5873 34.9824 17.1148 36.3922C18.6423 37.8019 20.4335 38.8955 22.3854 39.61C24.3373 40.3245 26.4113 40.6459 28.4879 40.5555C30.5645 40.4652 32.6028 39.9649 34.4852 39.0836L39.2402 40.4411C39.8189 40.6063 40.4312 40.6138 41.0137 40.4628C41.5962 40.3117 42.1278 40.0077 42.5533 39.5822C42.9788 39.1567 43.2828 38.6252 43.4338 38.0426C43.5848 37.4601 43.5773 36.8478 43.4121 36.2692L42.049 31.5142ZM9.32462 25.4261C9.11536 25.4259 8.9071 25.4549 8.70587 25.5123L5.05149 26.5567L6.09587 22.9023C6.25871 22.334 6.19136 21.7245 5.90837 21.2054C4.61466 18.8297 4.22034 16.0673 4.79766 13.4244C5.37499 10.7816 6.88528 8.43523 9.05183 6.81533C11.2184 5.19543 13.8961 4.41045 16.5943 4.60421C19.2925 4.79798 21.8306 5.95752 23.7434 7.87037C25.6563 9.78322 26.8158 12.3213 27.0096 15.0195C27.2034 17.7177 26.4184 20.3954 24.7985 22.562C23.1786 24.7285 20.8322 26.2388 18.1894 26.8161C15.5465 27.3935 12.7841 26.9991 10.4084 25.7054C10.0765 25.5225 9.70356 25.427 9.32462 25.4279V25.4261ZM37.4796 31.9023L38.524 35.5567L34.8696 34.5123C34.3013 34.3495 33.6918 34.4168 33.1727 34.6998C30.7506 36.0176 27.9292 36.4009 25.2433 35.7772C22.5574 35.1534 20.1937 33.5658 18.6002 31.3154C22.5094 30.6093 26.0068 28.4509 28.3908 25.2733C30.7747 22.0958 31.8688 18.1342 31.4534 14.1836C33.0008 14.7159 34.4135 15.5794 35.5929 16.7139C36.7722 17.8484 37.6899 19.2265 38.2819 20.7521C38.8738 22.2777 39.1259 23.9141 39.0203 25.5472C38.9148 27.1802 38.4543 28.7706 37.6709 30.2073C37.3866 30.7258 37.3179 31.3354 37.4796 31.9042V31.9023Z" fill="#141114"/>
</svg>
