<?xml version="1.0" encoding="UTF-8"?><svg id="Layer_2" xmlns="http://www.w3.org/2000/svg" viewBox="0 0 1303.49 263.42"><defs><style>.cls-1{fill:#ff7a1a;}.cls-2{fill:#ffd04d;}.cls-3{fill:#231f20;}.cls-4{fill:#ff4b1f;}</style></defs><g id="Layer_1-2"><path class="cls-3" d="M78.61,0c4.25,0,7.9,1.46,10.92,4.37,2.91,3.02,4.37,6.66,4.37,10.92v.33c0,4.26-1.46,7.9-4.37,10.92-3.02,2.91-6.66,4.37-10.92,4.37h-9.57c-10.53,0-19.48,3.7-26.88,11.09-7.28,7.39-10.98,16.35-11.09,26.88v.17h47.54c4.25,0,7.9,1.51,10.92,4.53,2.91,2.91,4.37,6.5,4.37,10.75v.34c0,4.26-1.46,7.89-4.37,10.92-3.02,3.02-6.66,4.53-10.92,4.53H31.07v136.89c0,4.26-1.51,7.84-4.53,10.75-3.02,3.02-6.61,4.53-10.75,4.53h-.5c-4.14,0-7.73-1.51-10.75-4.53-3.02-2.91-4.53-6.49-4.53-10.75V68.87c.22-19.15,6.94-35.38,20.16-48.71C33.59,6.72,49.89,0,69.04,0h9.57Z"/><path class="cls-3" d="M273.96,95.75c17.92,17.92,26.88,39.53,26.88,64.84v76.42c0,4.26-1.51,7.84-4.54,10.75-3.02,3.02-6.61,4.53-10.75,4.53h-.51c-4.14,0-7.73-1.51-10.75-4.53-3.02-2.91-4.53-6.49-4.53-10.75v-7.72c-17.36,15.34-37.57,23.01-60.64,23.01-25.31,0-46.92-8.96-64.84-26.88-17.92-17.91-26.88-39.53-26.88-64.83s8.96-46.92,26.88-64.84c17.92-17.92,39.53-26.88,64.84-26.88s46.92,8.96,64.84,26.88ZM166.12,117.75c-11.76,11.87-17.64,26.15-17.64,42.83s5.88,31.13,17.64,43c11.87,11.76,26.2,17.64,43,17.64s31.07-5.88,42.83-17.64c11.87-11.87,17.8-26.2,17.8-43s-5.94-30.96-17.8-42.83c-11.76-11.87-26.04-17.8-42.83-17.8s-31.13,5.94-43,17.8Z"/><path class="cls-3" d="M526.51,99.95v104.64c0,4.59,1.63,8.51,4.88,11.76,3.24,3.25,7.22,4.87,11.92,4.87h13.44c4.14,0,7.73,1.51,10.75,4.54.19.19.37.38.55.57.71.78,1.32,1.59,1.84,2.44h.01c.25.44.49.87.7,1.31.43.89.75,1.82.99,2.79.3,1.21.44,2.48.44,3.81v.33c0,1.33-.14,2.6-.44,3.79-.24.96-.56,1.88-.99,2.75-.64,1.31-1.49,2.53-2.55,3.65-.18.19-.36.38-.55.56-.19.19-.38.37-.57.55-1.55,1.41-3.24,2.46-5.07,3.12-.23.08-.46.16-.69.23-.46.14-.94.26-1.42.36-.97.18-1.97.28-3,.28h-13.44c-13.21,0-24.52-4.65-33.93-13.95-9.29-9.4-13.94-20.66-13.94-33.76V15.29c0-4.26,1.51-7.9,4.54-10.92,3.02-2.91,6.6-4.37,10.75-4.37h.5c4.14,0,7.73,1.46,10.75,4.37,3.02,3.02,4.53,6.66,4.53,10.92v53.58h30.24c4.14,0,7.73,1.51,10.75,4.54,3.02,3.02,4.54,6.66,4.54,10.92v.33c0,4.26-1.52,7.84-4.54,10.75-3.02,3.02-6.61,4.54-10.75,4.54h-30.24Z"/><path class="cls-3" d="M611.34,0c4.14,0,7.73,1.46,10.75,4.37,3.02,3.02,4.53,6.66,4.53,10.92v68.53c13.33-9.97,28.39-14.95,45.18-14.95,20.94,0,38.86,7.45,53.75,22.34,14.89,14.89,22.34,32.87,22.34,53.92v91.88c0,4.26-1.51,7.84-4.54,10.75-2.91,3.02-6.49,4.53-10.75,4.53h-.34c-4.26,0-7.89-1.51-10.92-4.53-3.02-2.91-4.53-6.49-4.53-10.75v-91.88c0-12.43-4.37-23.07-13.1-31.92-8.85-8.85-19.48-13.27-31.92-13.27s-23.24,4.42-32.08,13.27c-8.73,8.85-13.1,19.48-13.1,31.92v91.88c0,4.26-1.51,7.84-4.53,10.75-3.02,3.02-6.61,4.53-10.75,4.53h-.5c-4.14,0-7.73-1.51-10.75-4.53-3.02-2.91-4.53-6.49-4.53-10.75V15.29c0-4.25,1.51-7.9,4.53-10.92C603.11,1.46,606.69,0,610.83,0h.5Z"/><path class="cls-3" d="M938.04,95.75c17.92,17.92,26.88,39.53,26.88,64.84v76.42c0,4.26-1.51,7.84-4.53,10.75-3.02,3.02-6.61,4.53-10.75,4.53h-.5c-4.14,0-7.73-1.51-10.75-4.53-3.02-2.91-4.53-6.49-4.53-10.75v-7.72c-17.36,15.34-37.57,23.01-60.64,23.01-25.31,0-46.92-8.96-64.84-26.88-17.92-17.91-26.87-39.53-26.87-64.83s8.96-46.92,26.87-64.84c17.92-17.92,39.53-26.88,64.84-26.88s46.92,8.96,64.84,26.88ZM830.21,117.75c-11.76,11.87-17.64,26.15-17.64,42.83s5.88,31.13,17.64,43c11.87,11.76,26.2,17.64,43,17.64s31.08-5.88,42.83-17.64c11.87-11.87,17.81-26.2,17.81-43s-5.94-30.96-17.81-42.83c-11.76-11.87-26.04-17.8-42.83-17.8s-31.13,5.94-43,17.8Z"/><path class="cls-3" d="M399.49,253.85c-.7,0-1.39,0-2.09-.03h-.26c-25.45-.32-47.14-7.64-61.1-20.59-6.69-6.37-9.12-14.05-6.52-20.53,2.2-5.5,7.73-9.05,14.07-9.05,4.91,0,9.95,2.04,14.56,5.89,12.13,9.65,25.81,14.76,39.54,14.76.63,0,1.27-.01,1.9-.03h.15c10.43,0,20.23-3.58,26.21-9.56,4.36-4.37,6.56-9.78,6.55-16.1-.37-18.48-20.46-22.98-36.6-26.6-1.76-.39-3.46-.78-5.08-1.16-9.84-2.19-20.38-4.87-30.64-9.53-9.52-4.4-16.72-9.93-21.41-16.44-8.98-12.57-9.79-31.18-2.03-46.32,10.65-18.85,32.6-29.63,60.25-29.63,14.19,0,28.48,3,40.24,8.45,7.49,3.74,15.42,8.66,17.78,16.89,1.15,3.75.46,7.86-1.92,11.24-2.43,3.46-6.15,5.55-10.22,5.75-.36.02-.75.04-1.13.04-5.58,0-10.44-2.6-15.14-5.11-2.39-1.28-4.64-2.48-6.98-3.36-5.84-2.42-12.53-3.87-19.4-4.19-1.07-.05-2.17-.08-3.28-.08-6.67,0-28.7,1.15-32.23,16.02-3.72,15.68,10.08,21.42,24.06,24.97,4.4,1.22,8.85,2.3,13.15,3.36,3.84.94,7.8,1.91,11.6,2.94,18.49,4.96,32.16,12.44,40.61,22.21,5.13,5.69,8.87,14.1,10.23,23.04,2.58,14.88-1.03,28.67-10.42,39.83-12.09,14.36-32.45,22.93-54.46,22.93Z"/><path class="cls-3" d="M1237.8,253.85c-.7,0-1.39,0-2.09-.03h-.26c-25.45-.32-47.14-7.64-61.1-20.59-6.69-6.37-9.12-14.05-6.52-20.53,2.2-5.5,7.73-9.05,14.07-9.05,4.91,0,9.95,2.04,14.56,5.89,12.13,9.65,25.81,14.76,39.54,14.76.63,0,1.27-.01,1.9-.03h.15c10.43,0,20.23-3.58,26.21-9.56,4.36-4.37,6.56-9.78,6.55-16.1-.37-18.48-20.46-22.98-36.6-26.6-1.76-.39-3.46-.78-5.08-1.16-9.84-2.19-20.38-4.87-30.64-9.53-9.52-4.4-16.72-9.93-21.41-16.44-8.98-12.57-9.79-31.18-2.03-46.32,10.65-18.85,32.6-29.63,60.25-29.63,14.19,0,28.48,3,40.24,8.45,7.49,3.74,15.42,8.66,17.78,16.89,1.15,3.75.46,7.86-1.92,11.24-2.43,3.46-6.15,5.55-10.22,5.75-.36.02-.75.04-1.13.04-5.58,0-10.44-2.6-15.14-5.11-2.39-1.28-4.64-2.48-6.98-3.36-5.84-2.42-12.53-3.87-19.4-4.19-1.07-.05-2.17-.08-3.28-.08-6.67,0-28.7,1.15-32.23,16.02-3.72,15.68,10.08,21.42,24.06,24.97,4.4,1.22,8.85,2.3,13.15,3.36,3.84.94,7.8,1.91,11.6,2.94,18.49,4.96,32.16,12.44,40.61,22.21,5.13,5.69,8.87,14.1,10.23,23.04,2.58,14.88-1.03,28.67-10.42,39.83-12.09,14.36-32.45,22.93-54.46,22.93Z"/><path class="cls-4" d="M982.11,71.71c11.31,0,22.63.01,33.94,0-.02,34.44,0,68.89,0,103.33.05,4.49-.14,9,.27,13.48.65,7.12,2.34,14.24,5.67,20.61,2.3,4.44,5.43,8.44,9.24,11.69,4.54,3.87,9.92,6.72,15.62,8.49,4.25,1.4,8.68,2.12,13.12,2.54,7.98.59,16.1.05,23.8-2.19,6.08-1.77,11.88-4.68,16.72-8.8,4.55-3.93,8.2-8.91,10.58-14.44,3.21-7.23,4.43-15.19,4.64-23.06,0-26.42,0-52.84,0-79.27,0-10.8-.02-21.6.02-32.4,11.3-.02,22.6,0,33.9,0,.03,35.1.01,70.2.01,105.29-.02,4.62.11,9.24-.32,13.85-1.14,14.54-6.03,28.86-14.54,40.75-4.06,5.54-8.88,10.54-14.32,14.75-5.86,4.53-12.4,8.14-19.29,10.84-7.24,2.8-14.85,4.6-22.54,5.53-8.54.97-17.2.95-25.74-.05-8.16-.98-16.22-2.96-23.82-6.11-5.9-2.47-11.54-5.59-16.68-9.4-7.14-5.35-13.33-11.99-18.04-19.56-7.04-11.23-10.99-24.28-11.96-37.46-.37-4.49-.24-8.99-.27-13.49,0-34.97-.01-69.95,0-104.92Z"/><path class="cls-1" d="M1016.05,71.7c11.23,0,22.46,0,33.69,0,.01,33.73,0,67.46,0,101.2.04,3.39-.14,6.81.39,10.18.54,3.71,1.92,7.44,4.61,10.15,2.8,2.82,6.78,4.29,10.72,4.3,3.48.13,7.05-.8,9.85-2.9,2.31-1.65,4-4.06,5.03-6.68,1.34-3.37,1.65-7.03,1.71-10.62.04-35.21-.02-70.42.03-105.63,11.21-.02,22.42-.01,33.63,0-.04,10.8-.01,21.6-.02,32.4,0,26.42,0,52.84,0,79.27-.21,7.86-1.42,15.82-4.64,23.06-2.38,5.53-6.03,10.5-10.58,14.44-4.83,4.12-10.64,7.02-16.72,8.8-7.7,2.24-15.83,2.78-23.8,2.19-4.44-.42-8.88-1.14-13.12-2.54-5.69-1.78-11.07-4.62-15.62-8.49-3.8-3.25-6.94-7.25-9.24-11.69-3.32-6.37-5.02-13.49-5.67-20.61-.42-4.48-.22-8.99-.27-13.48.02-34.44,0-68.89,0-103.33Z"/><path class="cls-2" d="M1049.74,71.71c10.78,0,21.56-.01,32.34,0-.04,35.21.01,70.42-.03,105.63-.05,3.59-.37,7.25-1.71,10.62-1.03,2.62-2.72,5.03-5.03,6.68-2.81,2.1-6.38,3.03-9.85,2.9-3.94,0-7.92-1.48-10.72-4.3-2.68-2.71-4.07-6.44-4.61-10.15-.54-3.37-.35-6.78-.39-10.18,0-33.73.01-67.46,0-101.2Z"/></g></svg>