<svg width="24" height="24" viewBox="0 0 24 24" fill="none" xmlns="http://www.w3.org/2000/svg">
<g clip-path="url(#clip0_374_4235)">
<g clip-path="url(#clip1_374_4235)">
<path d="M6.37442 0.5H17.6244H17.9957L18.1029 0.857431L21.4779 12.1074L21.6707 12.75H20.9994H2.99942H2.32812L2.5209 12.1074L5.89592 0.857431L6.00316 0.5H6.37442ZM17.2531 1.50003H6.74571L3.6707 11.75H20.3282L17.2532 1.50003H17.2531Z" fill="#212121"/>
<path d="M15.7646 11.8828C16.4629 12.5218 17.0314 13.3316 17.4191 14.254C17.7913 15.1399 18 16.132 18 17.1787C18 19.0427 17.3366 20.735 16.2641 21.9643C15.1761 23.2112 13.6688 23.9825 12 23.9825C10.3312 23.9825 8.82386 23.2112 7.73592 21.9643C6.66341 20.735 6 19.0427 6 17.1787C6 16.132 6.20867 15.1399 6.58095 14.254C6.9686 13.3316 7.53709 12.5218 8.23542 11.8828L8.57135 11.75H15.4287L15.7646 11.8828ZM16.4972 14.6407C16.1901 13.9101 15.7574 13.2671 15.2326 12.75H8.76744C8.24258 13.2671 7.80986 13.9101 7.50282 14.6407C7.1806 15.4074 7.00001 16.2683 7.00001 17.1787C7.00001 18.7962 7.56786 20.2558 8.48591 21.308C9.38853 22.3426 10.6312 22.9825 12 22.9825C13.3687 22.9825 14.6115 22.3426 15.5141 21.308C16.4321 20.2558 17 18.7962 17 17.1787C17 16.2683 16.8194 15.4074 16.4972 14.6407Z" fill="#212121"/>
<path d="M6.00001 23.5C5.72387 23.5 5.5 23.7239 5.5 24C5.5 24.2762 5.72387 24.5 6.00001 24.5H18.0001C18.2762 24.5 18.5001 24.2762 18.5001 24C18.5001 23.7239 18.2762 23.5 18.0001 23.5H6.00001Z" fill="#212121"/>
<path d="M16.9637 3.87117C16.8925 3.60474 16.6188 3.44647 16.3523 3.51765C16.0859 3.58883 15.9276 3.86255 15.9988 4.12899L17.5172 9.79571C17.5884 10.0621 17.8621 10.2204 18.1286 10.1492C18.395 10.078 18.5533 9.80432 18.4821 9.53789L16.9637 3.87117Z" fill="#212121"/>
</g>
</g>
<defs>
<clipPath id="clip0_374_4235">
<rect width="24" height="24" fill="white"/>
</clipPath>
<clipPath id="clip1_374_4235">
<rect width="32" height="32" fill="white" transform="translate(-4 -3.5)"/>
</clipPath>
</defs>
</svg>
