<?xml version="1.0" encoding="UTF-8"?><svg id="Layer_2" xmlns="http://www.w3.org/2000/svg" viewBox="0 0 167.54 191.73"><defs><style>.cls-1{fill:#ff7a1a;}.cls-2{fill:#ffd04d;}.cls-3{fill:#ff4b1f;}</style></defs><g id="Layer_1-2"><path class="cls-3" d="M.01.02c11.31,0,22.63.01,33.94,0-.02,34.44,0,68.89,0,103.33.05,4.49-.14,9,.27,13.48.65,7.12,2.34,14.24,5.67,20.61,2.3,4.44,5.43,8.44,9.24,11.69,4.54,3.87,9.92,6.72,15.62,8.49,4.25,1.4,8.68,2.12,13.12,2.54,7.98.59,16.1.05,23.8-2.19,6.08-1.77,11.88-4.68,16.72-8.8,4.55-3.93,8.2-8.91,10.58-14.44,3.21-7.23,4.43-15.19,4.64-23.06,0-26.42,0-52.84,0-79.27,0-10.8-.02-21.6.02-32.4,11.3-.02,22.6,0,33.9,0,.03,35.1.01,70.2.01,105.29-.02,4.62.11,9.24-.32,13.85-1.14,14.54-6.03,28.86-14.54,40.75-4.06,5.54-8.88,10.54-14.32,14.75-5.86,4.53-12.4,8.14-19.29,10.84-7.24,2.8-14.85,4.6-22.54,5.53-8.54.97-17.2.95-25.74-.05-8.16-.98-16.22-2.96-23.82-6.11-5.9-2.47-11.54-5.59-16.68-9.4-7.14-5.35-13.33-11.99-18.04-19.56-7.04-11.23-10.99-24.28-11.96-37.46C-.1,113.94.03,109.44,0,104.94.01,69.96,0,34.99.01.02Z"/><path class="cls-1" d="M33.95,0c11.23,0,22.46,0,33.69,0,.01,33.73,0,67.46,0,101.2.04,3.39-.14,6.81.39,10.18.54,3.71,1.92,7.44,4.61,10.15,2.8,2.82,6.78,4.29,10.72,4.3,3.48.13,7.05-.8,9.85-2.9,2.31-1.65,4-4.06,5.03-6.68,1.34-3.37,1.65-7.03,1.71-10.62.04-35.21-.02-70.42.03-105.63,11.21-.02,22.42-.01,33.63,0-.04,10.8-.01,21.6-.02,32.4,0,26.42,0,52.84,0,79.27-.21,7.86-1.42,15.82-4.64,23.06-2.38,5.53-6.03,10.5-10.58,14.44-4.83,4.12-10.64,7.02-16.72,8.8-7.7,2.24-15.83,2.78-23.8,2.19-4.44-.42-8.88-1.14-13.12-2.54-5.69-1.78-11.07-4.62-15.62-8.49-3.8-3.25-6.94-7.25-9.24-11.69-3.32-6.37-5.02-13.49-5.67-20.61-.42-4.48-.22-8.99-.27-13.48.02-34.44,0-68.89,0-103.33Z"/><path class="cls-2" d="M67.65.02c10.78,0,21.56-.01,32.34,0-.04,35.21.01,70.42-.03,105.63-.05,3.59-.37,7.25-1.71,10.62-1.03,2.62-2.72,5.03-5.03,6.68-2.81,2.1-6.38,3.03-9.85,2.9-3.94,0-7.92-1.48-10.72-4.3-2.68-2.71-4.07-6.44-4.61-10.15-.54-3.37-.35-6.78-.39-10.18,0-33.73.01-67.46,0-101.2Z"/></g></svg>